HIERARCHY
ROOT Hips
{
    OFFSET 0.0 0.0 0.0
    CHANNELS 6 Xposition Yposition Zposition Zrotation Xrotation Yrotation
    JOINT Spine
    {
        OFFSET 0.0 23.62685613583908 0.0
        CHANNELS 3 Zrotation Xrotation Yrotation
        JOINT Chest
        {
            OFFSET 0.0 23.62685613583908 0.0
            CHANNELS 3 Zrotation Xrotation Yrotation
            JOINT Head
            {
                OFFSET 0.0 16.638637207558187 0.0
                CHANNELS 3 Zrotation Xrotation Yrotation
            }
            JOINT LeftUpperArm
            {
                OFFSET 15.008654479910897 0.0 0.0
                CHANNELS 3 Zrotation Xrotation Yrotation
                JOINT LeftLowerArm
                {
                    OFFSET 24.028201968306064 0.0 0.0
                    CHANNELS 3 Zrotation Xrotation Yrotation
                    JOINT LeftHand
                    {
                        OFFSET 19.81288162568095 0.0 0.0
                        CHANNELS 3 Zrotation Xrotation Yrotation
                    }
                    End Site
                    {
                    OFFSET 6.788249480795721 0.0 0.0
                    }
                }
            }
            JOINT RightUpperArm
            {
                OFFSET -15.008654479910897 0.0 0.0
                CHANNELS 3 Zrotation Xrotation Yrotation
                JOINT RightLowerArm
                {
                    OFFSET 24.028201968306064 0.0 0.0
                    CHANNELS 3 Zrotation Xrotation Yrotation
                    JOINT RightHand
                    {
                        OFFSET 19.81288162568095 0.0 0.0
                        CHANNELS 3 Zrotation Xrotation Yrotation
                    }
                    End Site
                    {
                    OFFSET 6.788249480795721 0.0 0.0
                    }
                }
            }
        }
    }
    JOINT LeftUpperLeg
    {
        OFFSET 9.73245296943076 0.0 0.0
        CHANNELS 3 Zrotation Xrotation Yrotation
        JOINT LeftLowerLeg
        {
            OFFSET 36.027957300159 0.0 0.0
            CHANNELS 3 Zrotation Xrotation Yrotation
            JOINT LeftFootAnkle
            {
                OFFSET 41.088631111747375 0.0 0.0
                CHANNELS 3 Zrotation Xrotation Yrotation
                End Site
                {
                OFFSET 10.947042967277829 0.0 0.0
                }
            }
        }
    }
    JOINT RightUpperLeg
    {
        OFFSET -9.73245296943076 0.0 0.0
        CHANNELS 3 Zrotation Xrotation Yrotation
        JOINT RightLowerLeg
        {
            OFFSET 36.027957300159 0.0 0.0
            CHANNELS 3 Zrotation Xrotation Yrotation
            JOINT RightFootAnkle
            {
                OFFSET 41.088631111747375 0.0 0.0
                CHANNELS 3 Zrotation Xrotation Yrotation
                End Site
                {
                OFFSET 10.947042967277829 0.0 0.0
                }
            }
        }
    }
}
MOTION
Frames: 4
Frame Time: 0.03333333333333333
0.017038268057277508 -0.2007196281812936 0.20377549652554056 2.4542635738834724 -4.861937063904904 -79.76952373194572 -4.836731051620381 0.013704149886554485 -0.6140238067586024 -4.836305747260609 0.06567359571973462 -0.6129930815759762 -90.27464248658056 45.84350982597922 -170.85467684333702 46.071833924199424 -70.45170905476219 102.667469153775 -29.265908683257 25.59000435810522 52.376344379540214 -7.416980015527737 -10.247901023492691 -21.243745415836916 106.91623159010616 32.924609260767284 166.6232986849928 -87.0598129227161 65.45272380330884 87.32514552437279 6.8270821864574955 44.79905001022242 14.925980033123386 109.95425216331293 -80.20582747653438 -164.81744821121194 -166.63617658218192 -5.314936395972978 180.0 -101.53288455387533 10.1960422423688 180.0 95.65193151763117 -48.78717857461133 -178.1310009172995 -170.59900618113738 -21.758737783325213 180.0 -104.96343340052297 -45.79162964124624 180.0
0.014689057109664887 -0.19404949233337146 0.2093907001928229 3.376865762935645 -5.164348058994812 -79.21204033243853 -5.043425927946393 0.05298758330546042 -0.9770843293210046 -5.041770579617892 0.14000036110889794 -0.9779621362054453 -76.87016314958797 45.006667213727575 -177.42305755046476 39.580710404872995 -67.48152341597392 93.82852658184655 -26.041706723522438 22.774046268441694 51.61358223837811 -7.6232957156913255 -5.628337051277636 -22.28025537896592 110.46609152851379 32.93775832503322 161.48173017184297 -102.5395457192344 63.84433904570618 101.29027160330496 5.889653604696513 39.917595199789716 14.94539402298436 107.59017413921978 -73.38224452836752 -166.64076297996382 -166.82423008122117 -14.662232982315128 180.0 -102.58778867212956 10.243338701690302 180.0 96.97798748512092 -46.25703038330527 -176.17189491189393 -169.63597309817834 -26.757134029835417 180.0 -102.04144915783314 -45.28952717490236 180.0
0.00621811930619284 -0.186560404980055 0.2124889223647222 4.632555276282056 -5.544158541694736 -77.73643873084369 -5.60271080934281 0.09475628143687319 -1.3719042505822532 -5.598770426304583 0.2313155065884901 -1.3746113684550005 -75.81178110756667 44.08395907198594 -177.28257057159075 32.97842745101896 -65.99175810751434 85.865010106778 -24.559075217040014 24.167737254643967 48.14227393124225 -6.365596163884723 -7.8140457715312825 -21.856706347433327 112.17792419626538 33.59032180144517 160.59062849821743 -110.25141706293819 63.423857234019344 108.26107099724871 11.358309641226349 39.8132526572156 9.398506638895851 108.97344046312018 -68.81685459201229 -164.9506499155099 -166.09144458246777 -20.361736982760124 180.0 -101.51398281444786 10.430389296073304 180.0 97.98048148092029 -46.822668156278084 -174.2248429283165 -168.92341363928276 -28.761158360063412 180.0 -100.82665957522757 -45.3890527907725 180.0
-0.004084817891650544 -0.1852192149686314 0.21411161651644245 5.688310732635847 -6.187278302391818 -75.50751361856358 -5.6515444079223744 0.14661443020552728 -1.6172506338554828 -5.644998296333931 0.3106076839197765 -1.6238496151501947 -90.20644908271957 42.9294901126256 -168.12696706363155 28.022533369050805 -65.76094684057827 78.8874672589567 -24.073177338928044 23.084921110556927 48.7284695712152 -7.519651215367784 -7.498141001282903 -21.373593673740565 113.31431418669865 32.516088772167194 159.27780901867294 -115.2406787729565 63.09781947029646 112.80254501726219 9.315539586012594 37.72316225932656 10.73804323279092 114.75391759033393 -69.45854607115716 -159.89895413486713 -166.7964812833295 -20.722051839308715 180.0 -101.6732307778371 10.887176213112495 180.0 100.34495651222637 -45.480668122135405 -172.76469773783808 -168.55122821654624 -32.70611982164653 180.0 -101.44388703058546 -45.17781195215503 180.0
